<?xml version="1.0" encoding="utf-8"?>
<!-- Generator: Adobe Illustrator 18.1.0, SVG Export Plug-In . SVG Version: 6.00 Build 0)  -->
<svg version="1.1" id="Слой_1" xmlns="http://www.w3.org/2000/svg" xmlns:xlink="http://www.w3.org/1999/xlink" x="0px" y="0px"
	 viewBox="0 0 510.2 170.1" enable-background="new 0 0 510.2 170.1" xml:space="preserve">
<path fill-rule="evenodd" clip-rule="evenodd" d="M148.7,30.7c5.7,0,11.4,0,17.2,0c5.4,15.8,10.7,31.6,16.2,47.4
	c5.2-15.8,10.8-31.5,16-47.4c5.7,0,11.4,0,17.1,0c-8.4,23-17,46-25.6,68.9c-5.1,0-10.2,0-15.3,0C165.7,76.7,157.2,53.7,148.7,30.7
	 M29.6,30.7c8.2,0,16.5,0,24.7,0c9.5,0.2,19.5,2.7,26.5,9.4c7.5,6.7,10.4,17.2,9.8,27c-0.2,8.7-3.6,17.5-10.1,23.3
	c-7.1,6.5-16.9,8.9-26.3,9.1c-8.2,0.1-16.4,0-24.7,0C29.6,76.6,29.6,53.6,29.6,30.7z M45.6,44c0.2,14,0.1,28,0.1,42
	c5.6-0.3,11.4,0.6,16.7-1.5c5.5-1.9,9.6-6.8,11.1-12.3c1.3-5.5,1.2-11.5-0.9-16.8c-1.8-4.5-5.5-8.4-10.2-9.9
	C57,43.4,51.2,44.2,45.6,44z M221.2,30.7c5.4,0,10.8,0,16.2,0c0,23,0,45.9,0,68.9c-5.4,0-10.8,0-16.2,0
	C221.2,76.6,221.2,53.6,221.2,30.7z M247.9,30.7c17.9,0,35.8,0,53.7,0c-0.1,3.7,0.2,7.5-0.2,11.1c-11.3,14.8-22.6,29.6-34,44.4
	c11.7,0,23.5,0,35.2,0c0,4.5,0,8.9,0,13.4c-18.6,0-37.2,0-55.8,0c0-3.9,0-7.8,0-11.7c11.3-14.7,22.5-29.4,33.8-44.2
	c-10.9,0-21.9-0.1-32.8,0.1C248,39.4,247.9,35.1,247.9,30.7z M311.6,30.7c5.4,0,10.8,0,16.2,0c0,23,0,45.9,0,68.9
	c-5.4,0-10.8,0-16.2,0C311.6,76.6,311.6,53.6,311.6,30.7z M365,30.4c3-0.7,6.1-0.6,9.1-0.6c10.3-0.5,21,3.8,27.8,11.6
	c5.3,6.1,8,14.2,8.3,22.2c0.3,8.3-1.7,16.9-6.8,23.5c-5.8,7.8-15.3,12.5-24.9,13.3c-4.8-0.1-9.7,0.5-14.4-0.7
	c-8.7-1.9-16.8-7-21.6-14.6c-5.3-8.4-6.5-19-4.5-28.6c1.7-8.5,6.9-16.4,14.3-21C356.2,33,360.6,31.4,365,30.4z M369.4,43.8
	c-5.3,0.9-10.2,4.3-12.9,9c-3.2,5.6-3.7,12.5-2.2,18.7c1.2,4.8,4.1,9.2,8.3,11.8c8.1,5.1,20,3.9,26.2-3.7c4.7-5.5,5.7-13.3,4.4-20.2
	c-1.1-5.6-4.5-10.8-9.6-13.5C379.4,43.5,374.3,42.8,369.4,43.8z M419.7,30.7c5.8,0,11.6-0.1,17.3,0c9.8,15.5,19.7,30.9,29.5,46.3
	c-0.5-15.4-0.2-30.9-0.3-46.3c5.3,0.2,10.8-0.5,16.1,0.3v68.3c-5.6,0.6-11.3,0.1-16.9,0.3c-10.1-15.7-20.3-31.3-30.4-47
	c0.5,4.9,0.4,9.8,0.5,14.8c0,10.7,0,21.5,0,32.2c-5.3,0-10.5,0-15.8,0C419.7,76.6,419.7,53.6,419.7,30.7z"/>
<path fill-rule="evenodd" clip-rule="evenodd" fill="#EC008C" d="M96.7,46.9c0-5.4,0-10.8,0-16.2c15.9,0,31.8,0,47.7,0
	c0,5.4,0,10.8,0,16.2C128.5,46.9,112.6,46.9,96.7,46.9"/>
<path fill-rule="evenodd" clip-rule="evenodd" fill="#00AEEF" d="M96.7,99.6c0-5.4,0-10.8,0-16.2c15.9,0,31.8,0,47.7,0
	c0,5.4,0,10.8,0,16.2C128.5,99.6,112.6,99.6,96.7,99.6"/>
<path fill-rule="evenodd" clip-rule="evenodd" fill="#FFDD00" d="M96.7,73.2c0-5.4,0-10.8,0-16.2c15.9,0,31.8,0,47.7,0
	c0,5.4,0,10.8,0,16.2C128.5,73.2,112.6,73.2,96.7,73.2"/>
<path fill-rule="evenodd" clip-rule="evenodd" d="M478.3,135.8h3v-16.3h-3c-2.4,4.1-5.1,8.4-7.7,11.9l0-11.9h-3.1v16.3h3.1
	c2.6-3.4,5.5-7.4,7.7-11.4L478.3,135.8z M436,130.4c-1.5-3.7-3-7.3-4.7-10.9l-4.6,0v16.3h3v-13.2c1.6,3.7,3.5,8.4,4.9,12.1l2.5,0
	c1.3-3.7,3.3-8.3,5-12.1v13.2h3v-16.3h-4.5C438.9,123.1,437.4,126.6,436,130.4L436,130.4z M401.2,133.1c-1.1,0.4-2.5,0.6-3.8,0.6
	c-2.9,0-3.7-0.4-3.7-3.2c0-2.5,0.9-2.8,3.7-2.8c1.4,0,2.8,0.1,3.8,0.4V133.1z M404.2,125.4c0-4.9-2.1-6.3-6.9-6.3
	c-2.3,0-4.5,0.4-6,0.8l0.6,2.6c1.3-0.5,3.2-0.7,4.8-0.7c3.6,0,4.4,0.7,4.4,4.2c-1.5-0.3-2.8-0.5-4.3-0.5c-3.7,0-6.4,0.7-6.4,5.4
	c0,4.3,1.8,5.5,6.8,5.5c2.2,0,5.1-0.5,7-1.3L404.2,125.4z M365.6,122.2v13.6h3.1v-16.3h-11.1c-0.3,6.1-1.5,11.7-3.1,16.3h3.3
	c1.3-4,2.4-9.2,2.7-13.6H365.6z M335.5,135.8c-3.9-7.3-5.4-8.2-7.2-8.9c1-0.7,3.3-3.2,6.7-7.4l-3.7,0c-3,3.6-5.6,6.6-7,7.9l0-7.9h-3
	v16.3h3V128c2.1,0.4,4.3,1.7,7.5,7.8H335.5z M292.9,121.6c2.6,0,3.6,0.7,3.7,4.2l-8.1,0C288.9,122.5,290,121.6,292.9,121.6
	L292.9,121.6z M298.1,132.8c-1.3,0.5-3.5,0.8-4.6,0.8c-3.3,0-4.8-0.9-4.9-5.3l11.1,0c0.2-7.4-2-9.2-6.9-9.2c-4.8,0-7.5,2.1-7.5,8.5
	c0,6.7,2.9,8.7,7.8,8.7c1.5,0,3.9-0.4,5.6-0.9L298.1,132.8z M249.4,142h3v-6.9c0.8,0.6,2.1,1.2,4.2,1.2c4.7,0,7.2-2,7.2-8.7
	c0-6.7-2.4-8.6-7.6-8.6c-2.2,0-5.1,0.5-6.9,1.2V142z M252.4,122.3c1-0.4,2.5-0.6,3.8-0.6c3.3,0,4.4,0.9,4.4,5.9
	c0,4.7-1.1,5.9-4.4,5.9c-2.1,0-3.8-0.7-3.8-2V122.3z M199.8,128.6c-2,0.3-3.2,1.4-5.8,7.2h3.4c2.3-5.4,3.5-6.3,5.8-6.3l2.7,0v6.3
	h3.1v-16.3h-8.9c-4,0-5.2,2.2-5.2,4.8C195.1,126.6,196.3,128.5,199.8,128.6L199.8,128.6z M206,127h-5.2c-1.7,0-2.5-0.8-2.5-2.5
	c0-1.8,0.8-2.4,2.4-2.4h5.3V127z M171.5,113c-1.4,0-1.8,0.2-1.8,1.6c0,1.5,0.5,1.8,1.8,1.8c1.4,0,1.8-0.3,1.8-1.8
	C173.3,113.2,172.8,113,171.5,113L171.5,113z M172.9,119.5h-3v16.3h3V119.5z M143.4,122.2v10.9h-7.3c1-3.5,1.8-7.6,2.1-10.9H143.4z
	 M135.4,119.5c-0.3,4.9-1.2,9.5-2.4,13.6l-2.8,0l0.7,7.1h2.4v-4.3h13.1v4.3h2.4l0.7-7.1h-3.1v-13.6H135.4z M102,136.6
	c-0.8,1.8-1.8,3.9-2.6,5.4h3.4c0.9-1.6,1.9-3.9,2.7-5.9c2.3-5.5,4.5-11.1,6.1-16.7l-3.2,0c-1.2,4.4-2.8,9-4.6,13.4
	c-1.3-4.5-2.9-9.7-4.5-13.4l-3.3,0C98.2,124.2,100.4,130.8,102,136.6L102,136.6z M71.7,122.2h6v-2.7H62.6v2.7h6v13.6h3.1V122.2z
	 M43.4,132.7c-1.1,0.5-2.5,0.8-3.9,0.8c-3.3,0-4.9-1.1-4.9-5.9c0-5.1,1.6-5.9,4.9-5.9c1.4,0,2.8,0.3,3.9,0.7l0.8-2.7
	c-1.2-0.5-3.4-0.8-4.8-0.8c-5,0-8,1.9-8,8.5c0,6.7,3,8.7,8,8.7c1.5,0,3.6-0.3,4.8-0.9L43.4,132.7z"/>
</svg>
